<svg width="32" height="32" viewBox="0 0 32 32" fill="none" xmlns="http://www.w3.org/2000/svg">
  <defs>
    <linearGradient id="bg" x1="0" y1="0" x2="32" y2="32" gradientUnits="userSpaceOnUse">
      <stop stop-color="#173a49"/>
      <stop offset="1" stop-color="#0c2029"/>
    </linearGradient>
    <linearGradient id="blade" x1="7" y1="24" x2="24" y2="6" gradientUnits="userSpaceOnUse">
      <stop stop-color="#e8590c"/>
      <stop offset="0.5" stop-color="#f5912f"/>
      <stop offset="1" stop-color="#ffc488"/>
    </linearGradient>
  </defs>
  <rect width="32" height="32" rx="8" fill="url(#bg)"/>
  <g stroke="url(#blade)" stroke-width="2.6" stroke-linecap="round" stroke-linejoin="round" fill="none">
    <path d="M24 6.6 C 21.4 10, 18.9 13.4, 15.6 17.4 C 13 19.6, 10.6 20.6, 9 21.7"/>
    <path d="M8 6.9 C 10.6 10.2, 13.1 13.5, 15.6 17.4 C 18.2 19.6, 20.6 20.6, 22.2 21.8"/>
  </g>
  <g stroke="#ffe6c9" stroke-width="0.7" stroke-linecap="round" fill="none" opacity="0.75">
    <path d="M24 6.6 C 21.4 10, 18.9 13.4, 15.6 17.4"/>
    <path d="M8 6.9 C 10.6 10.2, 13.1 13.5, 15.6 17.4"/>
  </g>
  <g stroke="url(#blade)" stroke-width="1.9" fill="none">
    <ellipse cx="7.3" cy="24.1" rx="3.1" ry="2.2" transform="rotate(-34 7.3 24.1)"/>
    <ellipse cx="23.9" cy="24.2" rx="3.1" ry="2.2" transform="rotate(34 23.9 24.2)"/>
  </g>
  <circle cx="15.6" cy="17.4" r="2" fill="#0c2029"/>
  <circle cx="15.6" cy="17.4" r="1.25" fill="#ffd9a8"/>
  <circle cx="15.1" cy="16.9" r="0.4" fill="#fff" opacity="0.9"/>
</svg>
